<svg aria-hidden="true" style="position: absolute; width: 0; height: 0; overflow: hidden;" version="1.1" xmlns="http://www.w3.org/2000/svg" xmlns:xlink="http://www.w3.org/1999/xlink">
<defs>
<symbol id="icon-c" viewBox="0 0 32 32">
<path fill="#a8b9cc" style="fill: var(--color1, #a8b9cc)" d="M22.697 12.288c0 0-0.515-4.391-5.273-4.513-4.76-0.121-7.203 3.293-7.203 8.173s2.701 8.784 7.331 8.784c4.631 0 5.147-4.88 5.147-4.88l8.875 0.488c0 0 0.521 4.408-3.192 7.771-3.715 3.363-8.272 3.912-11.456 3.889-3.184-0.024-7.597 0.045-11.867-3.959-4.265-4.001-4.992-7.891-4.992-11.711 0-3.821 0.809-8.881 5.885-12.72 3.448-2.605 6.945-3.567 10.443-3.567 14.6-0.001 15.579 12.329 15.579 12.329z"></path>
</symbol>
<symbol id="icon-hamburger" viewBox="0 0 32 32">
<path d="M2 6h28v6h-28zM2 14h28v6h-28zM2 22h28v6h-28z"></path>
</symbol>
<symbol id="icon-materialdesign" viewBox="0 0 32 32">
<path fill="#757575" style="fill: var(--color1, #757575)" d="M16 0c-8.831 0-16 7.169-16 16s7.169 16 16 16 16-7.169 16-16-7.169-16-16-16zM16 1c3.828 0 7.309 1.443 9.959 3.8h-19.919c2.629-2.358 6.122-3.8 9.951-3.8 0.003 0 0.006 0 0.009 0h-0.001zM6.419 5.8h19.163l-9.581 19.164zM4.8 6.040v19.92c-2.358-2.629-3.8-6.122-3.8-9.951 0-0.003 0-0.006 0-0.009v0c0-3.827 1.443-7.308 3.8-9.96zM27.2 6.040c2.358 2.629 3.8 6.122 3.8 9.951 0 0.003 0 0.006 0 0.009v-0.001c0 3.828-1.443 7.309-3.8 9.959zM5.8 6.8l9.7 19.4h-9.7zM26.2 6.8v19.4h-9.7zM6.044 27.2h19.915c-2.629 2.358-6.122 3.8-9.951 3.8-0.003 0-0.005 0-0.008 0h0c-0.001 0-0.003 0-0.005 0-3.83 0-7.322-1.442-9.965-3.812l0.014 0.012z"></path>
</symbol>
<symbol id="icon-sass" viewBox="0 0 32 32">
<path fill="#c69" style="fill: var(--color3, #c69)" d="M16 0c8.836 0 16 7.164 16 16s-7.164 16-16 16-16-7.164-16-16 7.164-16 16-16zM12.82 21.331c0.233 0.86 0.208 1.664-0.032 2.389l-0.087 0.24c-0.032 0.081-0.069 0.16-0.104 0.235-0.187 0.387-0.435 0.747-0.74 1.080-0.931 1.012-2.229 1.396-2.787 1.073-0.6-0.349-0.301-1.78 0.779-2.92 1.161-1.224 2.827-2.012 2.827-2.012v-0.004zM26.035 6.849c-0.723-2.844-5.436-3.779-9.896-2.193-2.652 0.943-5.525 2.424-7.591 4.356-2.457 2.295-2.848 4.295-2.687 5.131 0.569 2.948 4.609 4.876 6.271 6.307v0.008c-0.489 0.24-4.075 2.039-4.915 3.9-0.9 1.96 0.14 3.361 0.82 3.54 2.1 0.581 4.26-0.48 5.42-2.199 1.12-1.681 1.021-3.841 0.539-4.901 0.661-0.18 1.44-0.26 2.44-0.139 2.801 0.32 3.361 2.080 3.24 2.8-0.12 0.719-0.697 1.139-0.899 1.259-0.2 0.121-0.26 0.16-0.241 0.241 0.020 0.12 0.121 0.12 0.28 0.1 0.22-0.040 1.461-0.6 1.521-1.961 0.060-1.72-1.581-3.639-4.5-3.6-1.2 0.021-1.961 0.121-2.5 0.341-0.040-0.060-0.081-0.1-0.14-0.14-1.8-1.94-5.14-3.3-5-5.88 0.040-0.94 0.38-3.419 6.4-6.419 4.94-2.461 8.881-1.78 9.561-0.28 0.977 2.139-2.101 6.12-7.241 6.699-1.96 0.22-2.98-0.539-3.241-0.82-0.279-0.3-0.319-0.32-0.419-0.259-0.16 0.080-0.060 0.34 0 0.5 0.16 0.4 0.78 1.1 1.861 1.46 0.939 0.3 3.24 0.479 6-0.6 3.099-1.199 5.519-4.54 4.819-7.34z"></path>
</symbol>
<symbol id="icon-angular" viewBox="0 0 32 32">
<path fill="#dd0031" style="fill: var(--color6, #dd0031)" d="M13.24 16.86h5.512l-2.757-6.54zM15.995 0.012l-15.080 5.305 2.3 19.68 12.78 6.991 12.784-6.984 2.299-19.684zM25.405 24.408h-3.515l-1.893-4.668h-8.004l-1.893 4.668h-3.517l9.413-20.864z"></path>
</symbol>
<symbol id="icon-bitbucket" viewBox="0 0 32 32">
<path fill="#0052cc" style="fill: var(--color2, #0052cc)" d="M1.037 1.615c-0.565-0.008-1.029 0.445-1.037 1.011 0 0.060 0.003 0.12 0.013 0.179l4.351 26.415c0.112 0.665 0.687 1.156 1.363 1.163h20.873c0.509 0.005 0.944-0.361 1.027-0.861l4.36-26.707c0.091-0.557-0.288-1.084-0.847-1.175-0.060-0.011-0.119-0.015-0.177-0.013zM19.36 20.704h-6.664l-1.803-9.419h10.081z"></path>
</symbol>
<symbol id="icon-html5" viewBox="0 0 32 32">
<path fill="#e34f26" style="fill: var(--color4, #e34f26)" d="M2 0h28l-2.547 28.751-11.484 3.249-11.419-3.251zM11.375 13l-0.309-3.624 13.412 0.004 0.307-3.496-17.568-0.004 0.931 10.68h12.168l-0.435 4.568-3.88 1.072-3.94-1.080-0.251-2.813h-3.479l0.44 5.561 7.229 1.933 7.172-1.924 0.992-10.876z"></path>
</symbol>
<symbol id="icon-css3" viewBox="0 0 32 32">
<path fill="#1572b6" style="fill: var(--color5, #1572b6)" d="M2 0h28l-2.547 28.751-11.484 3.249-11.42-3.251zM24.787 5.884l-17.573-0.004 0.284 3.496 13.5 0.003-0.34 3.621h-8.853l0.32 3.431h8.243l-0.488 4.697-3.88 1.072-3.941-1.080-0.251-2.813h-3.48l0.387 5.14 7.287 2.271 7.164-2.040z"></path>
</symbol>
<symbol id="icon-download" viewBox="0 0 42 32">
<path d="M33.958 12.982c-0.43-6.61-5.027-12.982-13.458-12.982-1.029 0-2.044 0.1-3.018 0.297-0.271 0.055-0.445 0.318-0.391 0.59 0.055 0.271 0.314 0.445 0.59 0.391 0.908-0.185 1.857-0.278 2.819-0.278 8.588 0 12.5 6.739 12.5 13v1.5c0 0.276 0.224 0.5 0.5 0.5s0.5-0.224 0.5-0.5v-1.5c0-0.005-0.001-0.011-0.001-0.016 3.063 0.264 7.001 2.932 7.001 8.516 0 4.767-3.514 8.5-8 8.5h-24c-3.976 0-8-2.92-8-8.5 0-4.094 2.504-8.5 8-8.5h1.5c0.276 0 0.5-0.224 0.5-0.5s-0.224-0.5-0.5-0.5h-1.5v-2c0-3.727 2.299-6.042 6-6.042 3.364 0 6 2.654 6 6.042v12.993l-4.16-3.86c-0.2-0.188-0.517-0.177-0.706 0.026s-0.177 0.519 0.026 0.706l4.516 4.189c0.299 0.298 0.563 0.445 0.827 0.445 0.261 0 0.52-0.145 0.808-0.433l4.529-4.202c0.203-0.188 0.215-0.504 0.026-0.706-0.188-0.204-0.506-0.215-0.706-0.026l-4.16 3.861v-12.993c0-3.949-3.075-7.042-7-7.042-4.252 0-7 2.764-7 7.042v2.051c-5.255 0.508-8 5.003-8 9.449 0 4.605 3.154 9.5 9 9.5h24c5.047 0 9-4.173 9-9.5 0-6.304-4.557-9.278-8.042-9.518z"></path>
</symbol>
<symbol id="icon-lightbulb" viewBox="0 0 24 24">
<path d="M12.5 5.5c-0.276 0-0.5 0.224-0.5 0.5s0.224 0.5 0.5 0.5c1.083 0 1.964 0.881 1.964 1.964 0 0.276 0.224 0.5 0.5 0.5s0.5-0.224 0.5-0.5c0-1.634-1.33-2.964-2.964-2.964z"></path>
<path d="M12.5 1c-4.136 0-7.5 3.364-7.5 7.5 0 1.486 0.44 2.922 1.274 4.165 0.023 0.047 0.049 0.092 0.080 0.135 1.825 2.606 2.146 3.43 2.146 4.2v3c0 0.552 0.448 1 1 1h2c0 0.26 0.11 0.52 0.29 0.71 0.19 0.18 0.45 0.29 0.71 0.29s0.52-0.11 0.71-0.29c0.18-0.19 0.29-0.45 0.29-0.71h2c0.552 0 1-0.448 1-1v-3c0-0.782 0.319-1.61 2.132-4.199 0.895-1.275 1.368-2.762 1.368-4.301 0-4.136-3.364-7.5-7.5-7.5zM14.5 19h-4v-1h4v1zM16.995 11.653c-1.466 2.093-2.143 3.289-2.385 4.347h-1.11v-2c0-0.552-0.448-1-1-1s-1 0.448-1 1v2h-1.113c-0.24-1.030-0.898-2.2-2.306-4.22-0.022-0.044-0.048-0.087-0.077-0.129-0.657-0.934-1.004-2.024-1.004-3.151 0-3.033 2.467-5.5 5.5-5.5s5.5 2.467 5.5 5.5c0 1.126-0.347 2.216-1.005 3.153z"></path>
</symbol>
<symbol id="icon-create" viewBox="0 0 24 24">
<path d="M20.719 7.031l-1.828 1.828-3.75-3.75 1.828-1.828q0.281-0.281 0.703-0.281t0.703 0.281l2.344 2.344q0.281 0.281 0.281 0.703t-0.281 0.703zM3 17.25l11.063-11.063 3.75 3.75-11.063 11.063h-3.75v-3.75z"></path>
</symbol>
<symbol id="icon-basketball" viewBox="0 0 32 32">
<path d="M15.99 28.98v-11.99h-4.010c-0.135 3.421-1.644 6.488-3.99 8.665 2.117 1.964 4.915 3.204 8 3.325v0zM6.601 24.136c-1.541-1.991-2.495-4.459-2.601-7.146h6.979c-0.134 3.143-1.531 5.96-3.695 7.956 0.014 0.015-0.455-0.515-0.684-0.81v0zM25.696 24.946c1.94-2.111 3.164-4.892 3.284-7.956v0h-6.979c0.134 3.143 1.531 5.96 3.695 7.956v0 0zM24.99 25.655c-2.117 1.964-4.915 3.204-8 3.325v0-11.99h4.010c0.135 3.421 1.644 6.488 3.99 8.665v0 0zM25.696 8.034c1.94 2.111 3.164 4.892 3.284 7.956v0h-6.979c0.134-3.143 1.531-5.96 3.695-7.956v0 0zM24.99 7.325c-2.117-1.964-4.915-3.204-8-3.325v11.99h4.010c0.135-3.421 1.644-6.488 3.99-8.665v0zM7.284 8.034c-1.94 2.111-3.164 4.892-3.284 7.956v0h6.979c-0.134-3.143-1.531-5.96-3.695-7.956v0zM7.99 7.325c2.117-1.964 4.915-3.204 8-3.325v0 11.99h-4.010c-0.135-3.421-1.644-6.488-3.99-8.665v0z"></path>
</symbol>
<symbol id="icon-volleyball" viewBox="0 0 32 32">
<path d="M28.801 14.269c-3.593-3.423-8.638-5.233-13.883-4.554 0.304 1.809 0.916 3.596 1.857 5.287 4.564 0.070 8.703 1.888 11.78 4.813-0.017 0.062 0.088-0.327 0.146-0.589 0.195-0.877 0.298-1.79 0.298-2.726 0-0.48-0.027-0.954-0.080-1.42-0.058-0.511-0.161-1.044-0.119-0.811v0zM28.349 12.508c-3.7-2.966-8.548-4.465-13.569-3.812-0.16-1.543-0.1-3.092 0.169-4.601-0.051 0.006 0.18-0.022 0.348-0.038 0.396-0.038 0.798-0.057 1.204-0.057 5.241 0 9.728 3.225 11.586 7.799 0.144 0.355 0.305 0.835 0.263 0.709v0zM28.212 20.878c-1.427-1.438-3.117-2.614-4.991-3.451-2.221 5.307-6.733 9.030-11.952 10.43-0.059-0.027 0.169 0.078 0.345 0.153 1.501 0.638 3.153 0.991 4.887 0.991 5.2 0 9.658-3.175 11.542-7.692 0.090-0.217 0.199-0.506 0.17-0.43v0zM9.902 27.119c5.379-1.065 10.117-4.713 12.367-10.082-1.718-0.641-3.572-1.004-5.506-1.034-2.399 4.011-6.162 6.721-10.352 7.879-0.048-0.066 0.169 0.23 0.335 0.436 0.713 0.888 1.544 1.677 2.47 2.342 0.263 0.189 0.727 0.485 0.686 0.459v0zM5.823 23.003c2.017-0.514 3.936-1.407 5.641-2.649-2.911-3.813-4.071-8.456-3.57-12.92 0.035-0.033-0.43 0.42-0.68 0.697-1.998 2.216-3.215 5.15-3.215 8.369 0 2.158 0.547 4.188 1.51 5.96 0.139 0.255 0.355 0.612 0.313 0.543v0zM9.078 6.441c-0.813 4.537 0.217 9.372 3.199 13.282 1.405-1.164 2.638-2.581 3.627-4.233-1.974-3.545-2.585-7.49-1.998-11.221 0.032-0.007-0.176 0.038-0.311 0.070-1.416 0.337-2.739 0.915-3.922 1.688-0.284 0.185-0.672 0.471-0.595 0.413v0z"></path>
</symbol>
<symbol id="icon-swimming" viewBox="0 0 32 32">
<path d="M27.851,21.77c-0.327,0.375-0.803,0.591-1.304,0.591c-0.498,0-0.975-0.215-1.301-0.591
			c-1.033-1.184-2.543-1.933-4.244-1.933c-1.686,0-3.184,0.733-4.216,1.897c-0.328,0.37-0.797,0.581-1.292,0.581
			c-0.494,0-0.965-0.21-1.294-0.58c-1.034-1.164-2.528-1.898-4.215-1.898c-1.685,0-3.183,0.733-4.214,1.898
			c-0.33,0.37-0.799,0.58-1.295,0.58l0,0c-0.492,0-0.965-0.21-1.292-0.579C2.369,20.816,1.259,20.182,0,19.948v3.414
			c0.27,0.134,0.519,0.315,0.728,0.552c0.951,1.07,2.316,1.684,3.749,1.684c1.432,0,2.799-0.613,3.747-1.686
			c0.456-0.512,1.083-0.794,1.762-0.794c0.681,0,1.307,0.282,1.76,0.795c0.95,1.071,2.316,1.686,3.749,1.686
			c1.431,0,2.798-0.615,3.746-1.686c0.455-0.513,1.082-0.795,1.763-0.795c0.926,0,1.507,0.508,1.771,0.809
			c0.95,1.09,2.325,1.716,3.778,1.716c1.448-0.002,2.824-0.627,3.772-1.716c0.188-0.215,0.545-0.529,1.065-0.694v-3.319
			C29.982,20.092,28.738,20.755,27.851,21.77z"/>
		<circle cx="24.374" cy="14.518" r="4.047"/>
		<path d="M15.018,21.01c0.24,0.268,0.708,0.27,0.949-0.001c1.035-1.165,2.436-1.919,3.949-2.168
			c0.104-0.617,0.072-1.267-0.15-1.898c-0.117-0.331-1.404-4.654-1.404-4.654c-0.002-0.009-0.156-0.9,0.391-1.701
			c0.542-0.793,1.677-1.337,3.277-1.577c0.896-0.134,1.514-0.968,1.381-1.864c-0.131-0.896-0.959-1.515-1.866-1.381
			c-2.562,0.382-4.415,1.381-5.501,2.968c-1.352,1.975-0.936,4.049-0.875,4.31l0.348,1.41c-0.212,0.037-0.426,0.08-0.634,0.154
			l-6.62,2.337c-1.484,0.524-2.438,1.868-2.543,3.341c1.195-0.984,2.7-1.543,4.268-1.543C11.907,18.741,13.741,19.569,15.018,21.01z
			"/>
</symbol>
<symbol id="icon-dance" viewBox="0 0 511 511">
<path d="m212.648438 182.765625-48.605469-56.355469c-6.78125-7.859375-16.5-12.570312-26.867188-13.019531l-42.09375-1.835937-46.121093-29.710938-16.945313-68.972656c-2.140625-8.710938-10.9375-14.039063-19.648437-11.898438-8.707032 2.140625-14.035157 10.933594-11.894532 19.644532l18.488282 75.253906c.992187 4.03125 3.488281 7.53125 6.976562 9.777344l47.664062 30.703124-5.648437 122.03125-27.089844 66.15625c-.441406 1.074219-.78125 2.191407-1.015625 3.332032l-17.089844 82.5625c-2.121093 10.230468 4.457032 20.242187 14.6875 22.359375 10.203126 2.113281 20.238282-4.433594 22.359376-14.6875l16.734374-80.851563 25.300782-61.792968 28.519531 1.484374 17.507813 53.746094 4.269531 84.535156c.527343 10.386719 9.363281 18.460938 19.847656 17.9375 10.433594-.527343 18.46875-9.414062 17.9375-19.847656l-4.394531-87.050781c-.085938-1.664063-.390625-3.316406-.90625-4.902344l-24.410156-74.925781 3.28125-70.8125 25.910156 29.914062c.863281 1 1.847656 1.886719 2.929687 2.648438l36.332031 25.566406c1.011719-4.886718 3.332032-9.5625 6.984376-13.476562l12.003906-12.878906zm0 0"/><path d="m159.285156 66.703125c0 19.796875-16.046875 35.84375-35.84375 35.84375s-35.84375-16.046875-35.84375-35.84375 16.046875-35.84375 35.84375-35.84375 35.84375 16.046875 35.84375 35.84375zm0 0"/><path d="m367.445312 370.15625-19.339843 43.71875 4.3125 8.996094c4.332031 9.035156 15.175781 12.871094 24.234375 8.527344 9.050781-4.335938 12.867187-15.183594 8.53125-24.234376zm0 0"/><path d="m367.011719 113.960938c18.988281.984374 35.179687-13.605469 36.167969-32.589844.105468-2.0625.019531-4.089844-.226563-6.070313 6.007813-3.464843 10.0625-9.9375 10.0625-17.371093 0-11.078126-8.980469-20.058594-20.058594-20.058594-6.644531 0-12.519531 3.25-16.171875 8.230468-2-.476562-4.070312-.789062-6.195312-.898437-18.988282-.988281-35.179688 13.605469-36.167969 32.589844-.988281 18.988281 13.605469 35.179687 32.589844 36.167969zm0 0"/><path d="m506.691406 42.195312c-6.472656-5.683593-16.328125-5.042968-22.011718 1.429688l-49.242188 56.09375-50.863281 26.527344c-2.195313-.402344.660156-.167969-40.941407-2.332032-7.335937-.382812-14.984374 3.515626-18.347656 8.058594l-40.152344 54.226563-40.382812 43.3125c-5.929688 6.359375-5.582031 16.316406.777344 22.246093 6.371094 5.941407 16.328125 5.566407 22.246094-.777343 43.199218-46.386719 41.140624-44 42.128906-45.332031l8.953125-12.09375c-2.585938 56.367187-1.871094 42.285156-2.507813 47.363281l-9.878906 78.9375c-.433594 3.457031.136719 6.964843 1.644531 10.109375l4.605469 9.609375 40.777344-69.46875 3.792968.71875-60.539062 136.84375c-4.058594 9.175781.089844 19.90625 9.265625 23.964843 9.132813 4.039063 19.886719-.046874 23.960937-9.261718 16.773438-37.9375 65.582032-148.175782 66.089844-149.53125l.308594.019531c2.816406-61.386719 5.257812-114.503906 5.527344-120.46875l50.542968-26.359375c1.710938-.890625 3.238282-2.09375 4.511719-3.539062l51.164063-58.285157c5.683594-6.476562 5.042968-16.332031-1.429688-22.011719zm0 0"/>
</symbol>
<symbol id="icon-volleyball-water" viewBox="0 0 32 32">
<path d="M19.856 22.672c1.386-1.502 2.536-3.263 3.365-5.245 1.875 0.837 3.564 2.014 4.991 3.451 0.029-0.076-0.079 0.213-0.17 0.43-2.515 1.579-5.268 2.18-8.187 1.364v0 0zM18.781 22.309c1.448-1.485 2.643-3.258 3.487-5.273-1.718-0.641-3.572-1.004-5.506-1.034-0.95 1.588-2.114 2.973-3.433 4.137 1.294 0.229 2.596 0.694 3.895 1.425 0.523 0.294 1.043 0.542 1.557 0.745v0 0zM11.178 19.97c-2.7-3.738-3.769-8.221-3.284-12.536 0.035-0.033-0.43 0.42-0.68 0.697-1.998 2.216-3.215 5.15-3.215 8.369 0 1.842 0.398 3.59 1.113 5.165 1.955-1.049 3.992-1.658 6.065-1.695v0 0zM28.801 14.269c-3.593-3.423-8.638-5.233-13.883-4.554 0.304 1.809 0.916 3.596 1.857 5.287 4.564 0.070 8.703 1.888 11.78 4.813-0.017 0.062 0.088-0.327 0.146-0.589 0.195-0.877 0.298-1.79 0.298-2.726 0-0.48-0.027-0.954-0.080-1.42-0.058-0.511-0.161-1.044-0.119-0.811v0zM28.349 12.508c-3.7-2.966-8.548-4.465-13.569-3.812-0.16-1.543-0.1-3.092 0.169-4.601-0.051 0.006 0.18-0.022 0.348-0.038 0.396-0.038 0.798-0.057 1.204-0.057 5.241 0 9.728 3.225 11.586 7.799 0.144 0.355 0.305 0.835 0.263 0.709v0zM9.078 6.441c-0.813 4.537 0.217 9.372 3.199 13.282 1.405-1.164 2.638-2.581 3.627-4.233-1.974-3.545-2.585-7.49-1.998-11.221 0.032-0.007-0.176 0.038-0.311 0.070-1.416 0.337-2.739 0.915-3.922 1.688-0.284 0.185-0.672 0.471-0.595 0.413v0zM3 25c0.432-0.319 0.901-0.634 1.405-0.934 4.032-2.406 8.441-2.965 12.82-0.502 4.021 2.262 7.786 1.761 11.12-0.452 0.623-0.414 1.177-0.857 1.655-1.299v1.322c-0.341 0.277-0.709 0.549-1.102 0.81-3.622 2.405-7.778 2.957-12.164 0.491-4.022-2.262-8.065-1.75-11.817 0.489-0.713 0.425-1.353 0.881-1.911 1.336-0.002 0.002-0.004 0.003-0.006 0.005v-1.266zM5.979 26.232c3.592-1.665 7.43-1.813 11.245 0.333 3.481 1.958 6.771 1.846 9.755 0.344v1.109c-3.143 1.433-6.616 1.46-10.245-0.581-3.645-2.050-7.307-1.822-10.755-0.094v-1.11z"></path>
</symbol>
<symbol id="icon-table-tennis" viewBox="0 0 32 32">
<path d="M7.406 16c-0.314-0.92-0.456-1.924-0.39-2.977l0.064-1.029c0.242-3.872 3.569-6.995 7.432-6.995h1.010c3.869 0 7.191 3.132 7.432 6.995l0.064 1.029c0.066 1.052-0.076 2.057-0.39 2.977h-15.223zM7.831 17c1.233 2.391 3.722 4 6.688 4h0.996c2.967 0 5.456-1.609 6.689-4h-14.372zM17.227 21.802l0.291 4.2c0.031 0.551-0.443 0.998-1 0.998h-3c-0.566 0-1.029-0.447-0.998-0.998l0.233-4.189c0.548 0.122 1.122 0.186 1.714 0.186h0.996c0.611 0 1.202-0.068 1.765-0.198v0 0zM26.017 21.5c0-1.105-0.895-2-2-2s-2 0.895-2 2c0 1.105 0.895 2 2 2s2-0.895 2-2v0z"></path>
</symbol>
<symbol id="icon-man-woman" viewBox="0 0 32 32">
<path d="M8 3c0 1.657-1.343 3-3 3s-3-1.343-3-3c0-1.657 1.343-3 3-3s3 1.343 3 3z"></path>
<path d="M26 3c0 1.657-1.343 3-3 3s-3-1.343-3-3c0-1.657 1.343-3 3-3s3 1.343 3 3z"></path>
<path d="M8 8h-6c-1.105 0-2 0.895-2 2v10h2v12h2.5v-12h1v12h2.5v-12h2v-10c0-1.105-0.895-2-2-2z"></path>
<path d="M30.469 16l1.531-1.109-4.165-6.441c-0.185-0.281-0.499-0.45-0.835-0.45h-8c-0.336 0-0.65 0.169-0.835 0.45l-4.165 6.441 1.531 1.109 3.458-4.487 1.202 2.804-4.191 7.683h3.833l0.667 10h2v-10h1v10h2l0.667-10h3.833l-4.191-7.683 1.202-2.804 3.458 4.487z"></path>
</symbol>
<symbol id="icon-biker" viewBox="0 0 24 24">
<path d="M18.984 20.484q1.453 0 2.484-1.008t1.031-2.461-1.031-2.484-2.484-1.031-2.461 1.031-1.008 2.484 1.008 2.461 2.461 1.008zM18.984 12q2.109 0 3.563 1.453t1.453 3.563-1.453 3.539-3.563 1.43-3.539-1.43-1.43-3.539 1.43-3.563 3.539-1.453zM10.781 10.5l2.203 2.297v6.188h-1.969v-4.969l-3.234-2.813q-0.563-0.375-0.563-1.406 0-0.844 0.563-1.406l2.813-2.813q0.375-0.563 1.406-0.563 0.891 0 1.594 0.563l1.922 1.922q1.5 1.5 3.563 1.5v2.016q-2.953 0-5.063-2.109l-0.797-0.797zM5.016 20.484q1.453 0 2.461-1.008t1.008-2.461-1.008-2.484-2.461-1.031-2.484 1.031-1.031 2.484 1.031 2.461 2.484 1.008zM5.016 12q2.109 0 3.539 1.453t1.43 3.563-1.43 3.539-3.539 1.43-3.563-1.43-1.453-3.539 1.453-3.563 3.563-1.453zM15.516 5.484q-0.797 0-1.406-0.586t-0.609-1.383 0.609-1.406 1.406-0.609 1.383 0.609 0.586 1.406-0.586 1.383-1.383 0.586z"></path>
</symbol>
<symbol id="icon-presentation" viewBox="0 0 32 32">
<path d="M5.998 5h-0.987v23h20v-0.963l-18.996-0.049-0.017-21.988zM8.011 25h5v-10.875l-5 5v5.875zM14.011 25h5v-9.875l-2 2-3-3v10.875zM20.011 25h5v-15.187l-5 5v10.187zM13.387 11.067l3.62 3.6 7.148-7.112 1.834 1.844-0.044-4.399-4.415 0.023 1.717 1.722-6.242 6.26-3.689-3.703-5.623 5.604 0.939 0.912 4.755-4.751z"></path>
</symbol>
<symbol id="icon-rocket" viewBox="0 0 32 32">
<path d="M23.371 29.529c0 0 0.335-2.012-1.731-4.469 2.011-5.641 2.29-10.778 2.29-10.778s4.133 0.95 4.133 5.026c-0.001 6.981-4.692 10.221-4.692 10.221zM11.979 27.078c0 0-2.768-8.883-2.768-12.568 0-1.658 0.187-3.133 0.478-4.472h12.61c0.293 1.34 0.481 2.816 0.481 4.473 0 3.629-2.76 12.567-2.76 12.567h-8.041zM15.99 12.069c-1.418 0-2.568 1.15-2.568 2.569 0 1.418 1.15 2.569 2.568 2.569s2.569-1.15 2.569-2.569c0.001-1.419-1.15-2.569-2.569-2.569zM15.438 0.596v-3.498h1v3.409c1.143 0.832 4.236 3.478 5.635 8.575h-12.16c1.352-4.957 4.296-7.574 5.525-8.486zM8.629 29.529c0 0-4.691-3.24-4.691-10.221 0-4.076 4.133-5.026 4.133-5.026s0.279 5.137 2.289 10.778c-2.067 2.458-1.731 4.469-1.731 4.469zM17.691 30.045l-0.838-0.838-0.893 2.793-1.062-2.793-0.726 1.451-1.062-2.625h5.752l-1.171 2.012z"></path>
</symbol>
<symbol id="icon-github" viewBox="0 0 32 32">
<path d="M16 0.395c-8.836 0-16 7.163-16 16 0 7.069 4.585 13.067 10.942 15.182 0.8 0.148 1.094-0.347 1.094-0.77 0-0.381-0.015-1.642-0.022-2.979-4.452 0.968-5.391-1.888-5.391-1.888-0.728-1.849-1.776-2.341-1.776-2.341-1.452-0.993 0.11-0.973 0.11-0.973 1.606 0.113 2.452 1.649 2.452 1.649 1.427 2.446 3.743 1.739 4.656 1.33 0.143-1.034 0.558-1.74 1.016-2.14-3.554-0.404-7.29-1.777-7.29-7.907 0-1.747 0.625-3.174 1.649-4.295-0.166-0.403-0.714-2.030 0.155-4.234 0 0 1.344-0.43 4.401 1.64 1.276-0.355 2.645-0.532 4.005-0.539 1.359 0.006 2.729 0.184 4.008 0.539 3.054-2.070 4.395-1.64 4.395-1.64 0.871 2.204 0.323 3.831 0.157 4.234 1.026 1.12 1.647 2.548 1.647 4.295 0 6.145-3.743 7.498-7.306 7.895 0.574 0.497 1.085 1.47 1.085 2.963 0 2.141-0.019 3.864-0.019 4.391 0 0.426 0.288 0.925 1.099 0.768 6.354-2.118 10.933-8.113 10.933-15.18 0-8.837-7.164-16-16-16z"></path>
</symbol>
<symbol id="icon-instagram" viewBox="0 0 32 32">
<path fill="#e4405f" style="fill: var(--color1, #e4405f)" d="M16 0c-4.347 0-4.889 0.020-6.596 0.096-1.704 0.080-2.864 0.348-3.884 0.744-1.052 0.408-1.945 0.956-2.835 1.845s-1.439 1.781-1.845 2.835c-0.396 1.020-0.665 2.18-0.744 3.884-0.080 1.707-0.096 2.249-0.096 6.596s0.020 4.889 0.096 6.596c0.080 1.703 0.348 2.864 0.744 3.884 0.408 1.051 0.956 1.945 1.845 2.835 0.889 0.888 1.781 1.439 2.835 1.845 1.021 0.395 2.181 0.665 3.884 0.744 1.707 0.080 2.249 0.096 6.596 0.096s4.889-0.020 6.596-0.096c1.703-0.080 2.864-0.349 3.884-0.744 1.051-0.408 1.945-0.957 2.835-1.845 0.888-0.889 1.439-1.78 1.845-2.835 0.395-1.020 0.665-2.181 0.744-3.884 0.080-1.707 0.096-2.249 0.096-6.596s-0.020-4.889-0.096-6.596c-0.080-1.703-0.349-2.865-0.744-3.884-0.408-1.052-0.957-1.945-1.845-2.835-0.889-0.889-1.78-1.439-2.835-1.845-1.020-0.396-2.181-0.665-3.884-0.744-1.707-0.080-2.249-0.096-6.596-0.096zM16 2.88c4.271 0 4.78 0.021 6.467 0.095 1.56 0.073 2.407 0.332 2.969 0.553 0.749 0.289 1.28 0.636 1.843 1.195 0.559 0.56 0.905 1.092 1.195 1.841 0.219 0.563 0.48 1.409 0.551 2.969 0.076 1.688 0.093 2.195 0.093 6.467s-0.020 4.78-0.099 6.467c-0.081 1.56-0.341 2.407-0.561 2.969-0.299 0.749-0.639 1.28-1.199 1.843-0.559 0.559-1.099 0.905-1.84 1.195-0.56 0.219-1.42 0.48-2.98 0.551-1.699 0.076-2.199 0.093-6.479 0.093-4.281 0-4.781-0.020-6.479-0.099-1.561-0.081-2.421-0.341-2.981-0.561-0.759-0.299-1.28-0.639-1.839-1.199-0.561-0.559-0.92-1.099-1.2-1.84-0.22-0.56-0.479-1.42-0.56-2.98-0.060-1.68-0.081-2.199-0.081-6.459 0-4.261 0.021-4.781 0.081-6.481 0.081-1.56 0.34-2.419 0.56-2.979 0.28-0.76 0.639-1.28 1.2-1.841 0.559-0.559 1.080-0.919 1.839-1.197 0.56-0.221 1.401-0.481 2.961-0.561 1.7-0.060 2.2-0.080 6.479-0.080zM16 7.784c-4.54 0-8.216 3.68-8.216 8.216 0 4.54 3.68 8.216 8.216 8.216 4.54 0 8.216-3.68 8.216-8.216 0-4.54-3.68-8.216-8.216-8.216zM16 21.333c-2.947 0-5.333-2.387-5.333-5.333s2.387-5.333 5.333-5.333 5.333 2.387 5.333 5.333-2.387 5.333-5.333 5.333zM26.461 7.46c0 1.060-0.861 1.92-1.92 1.92-1.060 0-1.92-0.861-1.92-1.92s0.861-1.919 1.92-1.919c1.057-0.001 1.92 0.86 1.92 1.919z"></path>
</symbol>
<symbol id="icon-facebook" viewBox="0 0 32 32">
<path fill="#1877f2" style="fill: var(--color2, #1877f2)" d="M31.997 15.999c0-8.836-7.163-15.999-15.999-15.999s-15.999 7.163-15.999 15.999c0 7.985 5.851 14.604 13.499 15.804v-11.18h-4.062v-4.625h4.062v-3.525c0-4.010 2.389-6.225 6.043-6.225 1.75 0 3.581 0.313 3.581 0.313v3.937h-2.017c-1.987 0-2.607 1.233-2.607 2.498v3.001h4.437l-0.709 4.625h-3.728v11.18c7.649-1.2 13.499-7.819 13.499-15.804z"></path>
</symbol>
<symbol id="icon-twitter" viewBox="0 0 32 32">
<path fill="#1da1f2" style="fill: var(--color3, #1da1f2)" d="M31.939 6.092c-1.18 0.519-2.44 0.872-3.767 1.033 1.352-0.815 2.392-2.099 2.884-3.631-1.268 0.74-2.673 1.279-4.169 1.579-1.195-1.279-2.897-2.079-4.788-2.079-3.623 0-6.56 2.937-6.56 6.556 0 0.52 0.060 1.020 0.169 1.499-5.453-0.257-10.287-2.876-13.521-6.835-0.569 0.963-0.888 2.081-0.888 3.3 0 2.28 1.16 4.284 2.917 5.461-1.076-0.035-2.088-0.331-2.971-0.821v0.081c0 3.18 2.257 5.832 5.261 6.436-0.551 0.148-1.132 0.228-1.728 0.228-0.419 0-0.82-0.040-1.221-0.115 0.841 2.604 3.26 4.503 6.139 4.556-2.24 1.759-5.079 2.807-8.136 2.807-0.52 0-1.039-0.031-1.56-0.089 2.919 1.859 6.357 2.945 10.076 2.945 12.072 0 18.665-9.995 18.665-18.648 0-0.279 0-0.56-0.020-0.84 1.281-0.919 2.4-2.080 3.28-3.397z"></path>
</symbol>
<symbol id="icon-skype" viewBox="0 0 32 32">
<path fill="#00aff0" style="fill: var(--color4, #00aff0)" d="M16.092 25.165c-5.364 0-7.76-2.639-7.76-4.619 0-1.020 0.748-1.728 1.777-1.728 2.297 0 1.697 3.303 5.983 3.303 2.188 0 3.4-1.193 3.4-2.415 0-0.735-0.359-1.547-1.805-1.905l-4.768-1.193c-3.84-0.965-4.537-3.048-4.537-5.001 0-4.063 3.815-5.588 7.399-5.588 3.295 0 7.191 1.831 7.191 4.265 0 1.045-0.917 1.653-1.937 1.653-1.959 0-1.597-2.716-5.552-2.716-1.959 0-3.056 0.885-3.056 2.156s1.537 1.677 2.876 1.983l3.516 0.783c3.855 0.865 4.832 3.128 4.832 5.259 0 3.301-2.536 5.765-7.629 5.765zM30.799 18.657l-0.039 0.18-0.059-0.32c0.020 0.060 0.059 0.099 0.079 0.16 0.16-0.9 0.241-1.817 0.241-2.736 0-2.039-0.401-4.016-1.197-5.893-0.759-1.797-1.86-3.416-3.236-4.795-1.399-1.377-2.996-2.475-4.793-3.235-1.757-0.841-3.735-1.24-5.771-1.24-0.96 0-1.925 0.093-2.857 0.272l0.159 0.080-0.319-0.044 0.159-0.033c-1.285-0.688-2.727-1.053-4.191-1.053-2.385 0-4.627 0.931-6.315 2.623-1.688 1.691-2.617 3.941-2.617 6.332 0 1.524 0.389 3.020 1.125 4.344l0.027-0.165 0.055 0.319-0.080-0.153c-0.152 0.86-0.229 1.732-0.229 2.607 0 2.040 0.4 4.023 1.179 5.888 0.757 1.816 1.837 3.435 3.236 4.812 1.379 1.4 2.996 2.476 4.793 3.256 1.859 0.8 3.836 1.197 5.872 1.197 0.879 0 1.779-0.080 2.636-0.239l-0.159-0.083 0.32 0.061-0.18 0.040c1.336 0.759 2.835 1.161 4.392 1.161 2.377 0 4.612-0.92 6.311-2.617 1.679-1.679 2.616-3.935 2.616-6.332 0-1.517-0.399-3.016-1.137-4.355z"></path>
</symbol>
<symbol id="icon-linkedin" viewBox="0 0 32 32">
<path fill="#0077b5" style="fill: var(--color5, #0077b5)" d="M27.263 27.269h-4.739v-7.425c0-1.771-0.036-4.049-2.469-4.049-2.471 0-2.848 1.927-2.848 3.919v7.556h-4.739v-15.269h4.552v2.081h0.061c0.636-1.2 2.183-2.467 4.493-2.467 4.801 0 5.689 3.16 5.689 7.273zM7.116 9.911c-1.525 0-2.751-1.235-2.751-2.753 0-1.517 1.227-2.751 2.751-2.751 1.52 0 2.752 1.233 2.752 2.751 0 1.519-1.233 2.753-2.752 2.753zM9.492 27.269h-4.752v-15.269h4.752zM29.633 0h-27.272c-1.305 0-2.361 1.032-2.361 2.305v27.389c0 1.275 1.056 2.305 2.361 2.305h27.268c1.304 0 2.371-1.031 2.371-2.305v-27.389c0-1.273-1.067-2.305-2.371-2.305z"></path>
</symbol>
<symbol id="icon-youtube" viewBox="0 0 32 32">
<path fill="#f00" style="fill: var(--color1, #f00)" d="M31.327 8.273c-0.386-1.353-1.431-2.398-2.756-2.777l-0.028-0.007c-2.493-0.668-12.528-0.668-12.528-0.668s-10.009-0.013-12.528 0.668c-1.353 0.386-2.398 1.431-2.777 2.756l-0.007 0.028c-0.443 2.281-0.696 4.903-0.696 7.585 0 0.054 0 0.109 0 0.163l-0-0.008c-0 0.037-0 0.082-0 0.126 0 2.682 0.253 5.304 0.737 7.845l-0.041-0.26c0.386 1.353 1.431 2.398 2.756 2.777l0.028 0.007c2.491 0.669 12.528 0.669 12.528 0.669s10.008 0 12.528-0.669c1.353-0.386 2.398-1.431 2.777-2.756l0.007-0.028c0.425-2.233 0.668-4.803 0.668-7.429 0-0.099-0-0.198-0.001-0.297l0 0.015c0.001-0.092 0.001-0.201 0.001-0.31 0-2.626-0.243-5.196-0.708-7.687l0.040 0.258zM12.812 20.801v-9.591l8.352 4.803z"></path>
</symbol>
<symbol id="icon-youtube1" viewBox="0 0 32 32">
<path d="M31.681 9.6c0 0-0.313-2.206-1.275-3.175-1.219-1.275-2.581-1.281-3.206-1.356-4.475-0.325-11.194-0.325-11.194-0.325h-0.012c0 0-6.719 0-11.194 0.325-0.625 0.075-1.987 0.081-3.206 1.356-0.963 0.969-1.269 3.175-1.269 3.175s-0.319 2.588-0.319 5.181v2.425c0 2.587 0.319 5.181 0.319 5.181s0.313 2.206 1.269 3.175c1.219 1.275 2.819 1.231 3.531 1.369 2.563 0.244 10.881 0.319 10.881 0.319s6.725-0.012 11.2-0.331c0.625-0.075 1.988-0.081 3.206-1.356 0.962-0.969 1.275-3.175 1.275-3.175s0.319-2.587 0.319-5.181v-2.425c-0.006-2.588-0.325-5.181-0.325-5.181zM12.694 20.15v-8.994l8.644 4.513-8.644 4.481z"></path>
</symbol>
<symbol id="icon-facebook2" viewBox="0 0 32 32">
<path d="M29 0h-26c-1.65 0-3 1.35-3 3v26c0 1.65 1.35 3 3 3h13v-14h-4v-4h4v-2c0-3.306 2.694-6 6-6h4v4h-4c-1.1 0-2 0.9-2 2v2h6l-1 4h-5v14h9c1.65 0 3-1.35 3-3v-26c0-1.65-1.35-3-3-3z"></path>
</symbol>
<symbol id="icon-instagram1" viewBox="0 0 32 32">
<path d="M16 2.881c4.275 0 4.781 0.019 6.462 0.094 1.563 0.069 2.406 0.331 2.969 0.55 0.744 0.288 1.281 0.638 1.837 1.194 0.563 0.563 0.906 1.094 1.2 1.838 0.219 0.563 0.481 1.412 0.55 2.969 0.075 1.688 0.094 2.194 0.094 6.463s-0.019 4.781-0.094 6.463c-0.069 1.563-0.331 2.406-0.55 2.969-0.288 0.744-0.637 1.281-1.194 1.837-0.563 0.563-1.094 0.906-1.837 1.2-0.563 0.219-1.413 0.481-2.969 0.55-1.688 0.075-2.194 0.094-6.463 0.094s-4.781-0.019-6.463-0.094c-1.563-0.069-2.406-0.331-2.969-0.55-0.744-0.288-1.281-0.637-1.838-1.194-0.563-0.563-0.906-1.094-1.2-1.837-0.219-0.563-0.481-1.413-0.55-2.969-0.075-1.688-0.094-2.194-0.094-6.463s0.019-4.781 0.094-6.463c0.069-1.563 0.331-2.406 0.55-2.969 0.288-0.744 0.638-1.281 1.194-1.838 0.563-0.563 1.094-0.906 1.838-1.2 0.563-0.219 1.412-0.481 2.969-0.55 1.681-0.075 2.188-0.094 6.463-0.094zM16 0c-4.344 0-4.887 0.019-6.594 0.094-1.7 0.075-2.869 0.35-3.881 0.744-1.056 0.412-1.95 0.956-2.837 1.85-0.894 0.888-1.438 1.781-1.85 2.831-0.394 1.019-0.669 2.181-0.744 3.881-0.075 1.713-0.094 2.256-0.094 6.6s0.019 4.887 0.094 6.594c0.075 1.7 0.35 2.869 0.744 3.881 0.413 1.056 0.956 1.95 1.85 2.837 0.887 0.887 1.781 1.438 2.831 1.844 1.019 0.394 2.181 0.669 3.881 0.744 1.706 0.075 2.25 0.094 6.594 0.094s4.888-0.019 6.594-0.094c1.7-0.075 2.869-0.35 3.881-0.744 1.050-0.406 1.944-0.956 2.831-1.844s1.438-1.781 1.844-2.831c0.394-1.019 0.669-2.181 0.744-3.881 0.075-1.706 0.094-2.25 0.094-6.594s-0.019-4.887-0.094-6.594c-0.075-1.7-0.35-2.869-0.744-3.881-0.394-1.063-0.938-1.956-1.831-2.844-0.887-0.887-1.781-1.438-2.831-1.844-1.019-0.394-2.181-0.669-3.881-0.744-1.712-0.081-2.256-0.1-6.6-0.1v0z"></path>
<path d="M16 7.781c-4.537 0-8.219 3.681-8.219 8.219s3.681 8.219 8.219 8.219 8.219-3.681 8.219-8.219c0-4.537-3.681-8.219-8.219-8.219zM16 21.331c-2.944 0-5.331-2.387-5.331-5.331s2.387-5.331 5.331-5.331c2.944 0 5.331 2.387 5.331 5.331s-2.387 5.331-5.331 5.331z"></path>
<path d="M26.462 7.456c0 1.060-0.859 1.919-1.919 1.919s-1.919-0.859-1.919-1.919c0-1.060 0.859-1.919 1.919-1.919s1.919 0.859 1.919 1.919z"></path>
</symbol>
<symbol id="icon-twitter1" viewBox="0 0 32 32">
<path d="M32 7.075c-1.175 0.525-2.444 0.875-3.769 1.031 1.356-0.813 2.394-2.1 2.887-3.631-1.269 0.75-2.675 1.3-4.169 1.594-1.2-1.275-2.906-2.069-4.794-2.069-3.625 0-6.563 2.938-6.563 6.563 0 0.512 0.056 1.012 0.169 1.494-5.456-0.275-10.294-2.888-13.531-6.862-0.563 0.969-0.887 2.1-0.887 3.3 0 2.275 1.156 4.287 2.919 5.463-1.075-0.031-2.087-0.331-2.975-0.819 0 0.025 0 0.056 0 0.081 0 3.181 2.263 5.838 5.269 6.437-0.55 0.15-1.131 0.231-1.731 0.231-0.425 0-0.831-0.044-1.237-0.119 0.838 2.606 3.263 4.506 6.131 4.563-2.25 1.762-5.075 2.813-8.156 2.813-0.531 0-1.050-0.031-1.569-0.094 2.913 1.869 6.362 2.95 10.069 2.95 12.075 0 18.681-10.006 18.681-18.681 0-0.287-0.006-0.569-0.019-0.85 1.281-0.919 2.394-2.075 3.275-3.394z"></path>
</symbol>
<symbol id="icon-skype1" viewBox="0 0 32 32">
<path d="M13.3 1.169c-0.050-0.031-0.106-0.056-0.156-0.081-0.056 0.012-0.106 0.019-0.162 0.031l0.319 0.050z"></path>
<path d="M1.15 13.156c-0.012 0.056-0.019 0.113-0.025 0.162 0.031 0.050 0.050 0.1 0.081 0.15l-0.056-0.313z"></path>
<path d="M30.837 18.831c0.012-0.056 0.019-0.113 0.031-0.169-0.031-0.050-0.050-0.1-0.081-0.15l0.050 0.319z"></path>
<path d="M18.5 30.719c0.050 0.031 0.106 0.056 0.156 0.081 0.056-0.012 0.113-0.019 0.169-0.025l-0.325-0.056z"></path>
<path d="M30.869 18.663c-0.012 0.056-0.019 0.113-0.031 0.169l-0.056-0.325c0.031 0.056 0.056 0.106 0.087 0.156 0.163-0.9 0.25-1.819 0.25-2.738 0-2.037-0.4-4.019-1.188-5.881-0.762-1.8-1.85-3.419-3.238-4.806s-3.006-2.475-4.8-3.237c-1.863-0.788-3.844-1.188-5.881-1.188-0.963 0-1.925 0.088-2.863 0.269 0 0-0.006 0-0.006 0 0.050 0.025 0.106 0.050 0.156 0.081l-0.319-0.050c0.056-0.012 0.106-0.019 0.162-0.031-1.287-0.681-2.731-1.050-4.194-1.050-2.388 0-4.638 0.931-6.325 2.619s-2.619 3.937-2.619 6.325c0 1.519 0.394 3.019 1.125 4.338 0.012-0.056 0.019-0.113 0.025-0.162l0.056 0.319c-0.031-0.050-0.056-0.1-0.081-0.15-0.15 0.856-0.225 1.731-0.225 2.606 0 2.038 0.4 4.019 1.188 5.881 0.763 1.8 1.85 3.413 3.237 4.8s3.006 2.475 4.806 3.238c1.863 0.788 3.844 1.188 5.881 1.188 0.887 0 1.775-0.081 2.644-0.238-0.050-0.031-0.1-0.056-0.156-0.081l0.325 0.056c-0.056 0.012-0.113 0.019-0.169 0.025 1.337 0.756 2.856 1.163 4.4 1.163 2.387 0 4.637-0.931 6.325-2.619s2.619-3.938 2.619-6.325c-0.006-1.519-0.4-3.019-1.137-4.35zM16.069 25.181c-5.369 0-7.769-2.637-7.769-4.619 0-1.012 0.75-1.725 1.781-1.725 2.3 0 1.7 3.3 5.988 3.3 2.194 0 3.406-1.194 3.406-2.413 0-0.731-0.363-1.544-1.806-1.9l-4.775-1.194c-3.844-0.963-4.544-3.044-4.544-5 0-4.056 3.819-5.581 7.406-5.581 3.306 0 7.2 1.825 7.2 4.263 0 1.044-0.906 1.65-1.938 1.65-1.962 0-1.6-2.713-5.55-2.713-1.963 0-3.044 0.887-3.044 2.156s1.55 1.675 2.894 1.981l3.538 0.787c3.869 0.863 4.85 3.125 4.85 5.25 0 3.294-2.531 5.756-7.637 5.756z"></path>
</symbol>
<symbol id="icon-linkedin1" viewBox="0 0 32 32">
<path  d="M29 0h-26c-1.65 0-3 1.35-3 3v26c0 1.65 1.35 3 3 3h26c1.65 0 3-1.35 3-3v-26c0-1.65-1.35-3-3-3zM12 26h-4v-14h4v14zM10 10c-1.106 0-2-0.894-2-2s0.894-2 2-2c1.106 0 2 0.894 2 2s-0.894 2-2 2zM26 26h-4v-8c0-1.106-0.894-2-2-2s-2 0.894-2 2v8h-4v-14h4v2.481c0.825-1.131 2.087-2.481 3.5-2.481 2.488 0 4.5 2.238 4.5 5v9z"></path>
</symbol>
<symbol id="icon-sdlc" enable-background="new 0 0 64 64" viewBox="0 0 64 64">
<g><g><g><path d="m33 9v6h-17c-.55 0-1 .45-1 1v9h2.46c.85 0 1.54.69 1.54 1.54 0 .3-.09.59-.26.85l-5.19 7.78c-.34.52-.93.83-1.55.83s-1.21-.31-1.55-.83l-5.19-7.78c-.17-.26-.26-.55-.26-.85 0-.85.69-1.54 1.54-1.54h2.46v-11c0-2.76 2.24-5 5-5z" fill="#ff826e"/></g><g><path d="m58.74 36.61c.17.26.26.55.26.85 0 .85-.69 1.54-1.54 1.54h-2.46v11c0 2.76-2.24 5-5 5h-19v-6h17c.55 0 1-.45 1-1v-9h-2.46c-.85 0-1.54-.69-1.54-1.54 0-.3.09-.59.26-.85l5.19-7.78c.34-.52.93-.83 1.55-.83s1.21.31 1.55.83z" fill="#ff826e"/></g><g><path d="m35 39v2c0 1.1-.9 2-2 2h-2c-1.1 0-2-.9-2-2v-2h3z" fill="#aab2bd"/></g><g><path d="m35 38.21v.79h-3-3v-.75c0-1-.46-1.97-1.3-2.51-2.5-1.59-4.05-4.53-3.63-7.79.45-3.59 3.4-6.49 7-6.9 4.83-.54 8.93 3.22 8.93 7.95 0 2.83-1.47 5.31-3.68 6.73-.84.54-1.32 1.48-1.32 2.48z" fill="#ffeaa7"/></g><g><path d="m22 50v4l-2.53.84c-.06.15-.11.29-.18.43l1.2 2.39-2.83 2.83-2.39-1.2c-.14.07-.28.12-.43.18l-.84 2.53h-4l-.84-2.53c-.15-.06-.29-.11-.43-.18l-2.39 1.2-2.83-2.83 1.2-2.39c-.07-.14-.12-.28-.18-.43l-2.53-.84v-4l2.53-.84c.06-.15.11-.29.18-.43l-1.2-2.39 2.83-2.83 2.39 1.2c.14-.07.28-.12.43-.18l.84-2.53h4l.84 2.53c.15.06.29.11.43.18l2.39-1.2 2.83 2.83-1.2 2.39c.07.14.12.28.18.43zm-6 2c0-2.21-1.79-4-4-4s-4 1.79-4 4 1.79 4 4 4 4-1.79 4-4z" fill="#fcd770"/></g><g><path d="m62 10v4l-2.53.84c-.06.15-.11.29-.18.43l1.2 2.39-2.83 2.83-2.39-1.2c-.14.07-.28.12-.43.18l-.84 2.53h-4l-.84-2.53c-.15-.06-.29-.11-.43-.18l-2.39 1.2-2.83-2.83 1.2-2.39c-.07-.14-.12-.28-.18-.43l-2.53-.84v-4l2.53-.84c.06-.15.11-.29.18-.43l-1.2-2.39 2.83-2.83 2.39 1.2c.14-.07.28-.12.43-.18l.84-2.53h4l.84 2.53c.15.06.29.11.43.18l2.39-1.2 2.83 2.83-1.2 2.39c.07.14.12.28.18.43zm-6 2c0-2.21-1.79-4-4-4s-4 1.79-4 4 1.79 4 4 4 4-1.79 4-4z" fill="#fcd770"/></g><g><circle cx="32" cy="29" fill="#fcd770" r="2"/></g></g><g><path d="m63 9.279-2.456-.818 1.158-2.315-3.848-3.848-2.315 1.158-.818-2.456h-5.441l-.818 2.456-2.315-1.158-3.848 3.848 1.158 2.315-2.457.818v5.441l2.456.818-1.158 2.315 3.848 3.848 2.315-1.158.818 2.457h5.441l.818-2.456 2.315 1.158 3.848-3.848-1.158-2.315 2.457-.818zm-2 4-2.296.765-.168.443c-.049.129-.1.254-.154.378l-.194.433 1.081 2.162-1.809 1.809-2.162-1.081-.433.194c-.124.055-.249.105-.378.154l-.443.168-.765 2.296h-2.559l-.765-2.296-.443-.168c-.129-.049-.254-.1-.378-.154l-.433-.194-2.162 1.081-1.809-1.809 1.081-2.162-.194-.433c-.055-.124-.105-.249-.154-.378l-.168-.443-2.295-.765v-2.559l2.296-.765.168-.443c.049-.129.1-.254.154-.378l.194-.433-1.081-2.161 1.809-1.809 2.162 1.081.433-.194c.124-.055.249-.105.378-.154l.443-.168.765-2.296h2.559l.765 2.296.443.168c.129.049.254.1.378.154l.433.194 2.162-1.081 1.809 1.809-1.081 2.162.194.433c.055.124.105.249.154.378l.168.443 2.295.765z"/><path d="m52 7c-2.757 0-5 2.243-5 5s2.243 5 5 5 5-2.243 5-5-2.243-5-5-5zm0 8c-1.654 0-3-1.346-3-3s1.346-3 3-3 3 1.346 3 3-1.346 3-3 3z"/><path d="m21.702 46.146-3.848-3.848-2.315 1.158-.818-2.456h-5.442l-.818 2.456-2.315-1.158-3.848 3.848 1.158 2.315-2.456.818v5.441l2.456.818-1.158 2.315 3.848 3.848 2.315-1.158.818 2.457h5.441l.818-2.456 2.315 1.158 3.848-3.848-1.158-2.315 2.457-.818v-5.441l-2.456-.818zm-.702 4.575v2.559l-2.296.765-.168.443c-.049.129-.1.254-.154.378l-.194.433 1.081 2.162-1.809 1.809-2.162-1.081-.433.194c-.124.055-.249.105-.378.154l-.443.168-.765 2.295h-2.559l-.765-2.296-.443-.168c-.129-.049-.254-.1-.378-.154l-.433-.194-2.161 1.081-1.809-1.809 1.081-2.162-.194-.433c-.055-.124-.105-.249-.154-.378l-.168-.443-2.296-.765v-2.559l2.296-.765.168-.443c.049-.129.1-.254.154-.378l.194-.433-1.081-2.161 1.809-1.809 2.162 1.081.433-.194c.124-.055.249-.105.378-.154l.443-.168.765-2.296h2.559l.765 2.296.443.168c.129.049.254.1.378.154l.433.194 2.162-1.081 1.809 1.809-1.081 2.162.194.433c.055.124.105.249.154.378l.168.443z"/><path d="m12 47c-2.757 0-5 2.243-5 5s2.243 5 5 5 5-2.243 5-5-2.243-5-5-5zm0 8c-1.654 0-3-1.346-3-3s1.346-3 3-3 3 1.346 3 3-1.346 3-3 3z"/><path d="m28 38.25v2.75c0 1.654 1.346 3 3 3h2c1.654 0 3-1.346 3-3v-2.791c0-.68.322-1.293.862-1.64 2.591-1.666 4.138-4.496 4.138-7.569 0-2.561-1.096-5.008-3.006-6.714-1.908-1.705-4.473-2.521-7.039-2.227-4.052.458-7.365 3.723-7.88 7.762-.447 3.51 1.118 6.867 4.084 8.762.519.331.841.97.841 1.667zm5 3.75h-2c-.552 0-1-.448-1-1v-1h4v1c0 .552-.448 1-1 1zm-2-13c0-.552.448-1 1-1s1 .448 1 1-.448 1-1 1-1-.448-1-1zm-5.94-.926c.399-3.136 2.974-5.672 6.12-6.027.278-.032.555-.048.829-.048 1.725 0 3.353.617 4.652 1.778 1.486 1.328 2.339 3.232 2.339 5.223 0 2.39-1.204 4.591-3.219 5.887-1.058.68-1.704 1.833-1.768 3.113h-1.013v-6.184c1.161-.414 2-1.514 2-2.816 0-1.654-1.346-3-3-3s-3 1.346-3 3c0 1.302.839 2.402 2 2.816v6.184h-1.015c-.074-1.292-.711-2.439-1.749-3.103-2.308-1.474-3.525-4.088-3.176-6.823z"/><path d="m54.387 28.277c-.534-.799-1.426-1.277-2.387-1.277s-1.853.478-2.387 1.277l-5.188 7.781c-.278.419-.425.905-.425 1.407 0 1.397 1.138 2.535 2.535 2.535h1.465v8h-17v2h17c1.103 0 2-.897 2-2v-10h-3.465c-.295 0-.535-.24-.535-.535 0-.106.031-.209.09-.297l5.188-7.781c.322-.484 1.123-.484 1.445 0l5.188 7.781c.059.088.09.19.09.297-.001.295-.241.535-.536.535h-3.465v12c0 2.206-1.794 4-4 4h-19v2h19c3.309 0 6-2.691 6-6v-10h1.465c1.397 0 2.535-1.138 2.535-2.535 0-.502-.147-.988-.426-1.406z"/><path d="m27 54h2v2h-2z"/><path d="m9.613 35.723c.534.799 1.426 1.277 2.387 1.277s1.853-.478 2.387-1.277l5.188-7.781c.278-.419.425-.905.425-1.407 0-1.397-1.138-2.535-2.535-2.535h-1.465v-8h17v-2h-17c-1.103 0-2 .897-2 2v10h3.465c.295 0 .535.24.535.535 0 .106-.031.209-.09.297l-5.188 7.781c-.322.484-1.123.484-1.445 0l-5.187-7.781c-.059-.088-.09-.19-.09-.297 0-.295.24-.535.535-.535h3.465v-12c0-2.206 1.794-4 4-4h19v-2h-19c-3.309 0-6 2.691-6 6v10h-1.465c-1.397 0-2.535 1.138-2.535 2.535 0 .502.147.988.426 1.406z"/><path d="m35 8h2v2h-2z"/></g></g>
</symbol>
<symbol id="icon-bem" viewBox="0 0 512 512">
<g><path d="m304 65h-80c-8.284 0-15 6.716-15 15v64c0 8.284 6.716 15 15 15h80c8.284 0 15-6.716 15-15v-64c0-8.284-6.716-15-15-15z" fill="#ff515e"/><path d="m464 65h-80c-8.284 0-15 6.716-15 15v64c0 8.284 6.716 15 15 15h80c8.284 0 15-6.716 15-15v-64c0-8.284-6.716-15-15-15z" fill="#c6507a"/><path d="m512 143v144c0 8.28-6.72 15-15 15h-305c-8.28 0-15-6.72-15-15v-144c0-8.28 6.72-15 15-15h305c8.28 0 15 6.72 15 15z" fill="#ff6888"/><path d="m512 143v144c0 8.28-6.72 15-15 15h-153v-174h153c8.28 0 15 6.72 15 15z" fill="#ff515e"/><path d="m497 273h-153c-8.284 0-15 6.716-15 15v144c0 8.284 6.716 15 15 15h153c8.284 0 15-6.716 15-15v-144c0-8.284-6.716-15-15-15z" fill="#f4de48"/><path d="m128 209h-80c-8.284 0-15 6.716-15 15v64c0 8.284 6.716 15 15 15h80c8.284 0 15-6.716 15-15v-64c0-8.284-6.716-15-15-15z" fill="#554fb2"/><path d="m359 288v144c0 8.28-6.72 15-15 15h-329c-8.28 0-15-6.72-15-15v-144c0-8.28 6.72-15 15-15h329c8.28 0 15 6.72 15 15z" fill="#736dd9"/><path d="m359 288v144c0 8.28-6.72 15-15 15h-168v-174h168c8.28 0 15 6.72 15 15z" fill="#554fb2"/></g>
</symbol>
<symbol id="icon-dry" viewBox="0 0 479.88 479.88">
<g><g><path d="m423.942 239.94c0 101.562-82.32 184-184 184-101.469 0-184-82.238-184-184 0-98.6 77.55-179.08 174.98-183.78 104.134-5.221 193.02 77.893 193.02 183.78z" fill="#d6f4fc"/></g><g><path d="m420.552 204.6c-12.13 9.49-26.26 16.56-40.83 21.73-8.07 2.86-16.51 5.21-25.06 4.84-16.51-.72-31.95-12.64-36.83-28.42-1.72-5.58-2.25-11.58-4.96-16.75-6.81-12.98-24.03-15.78-38.69-15.48-24.227.48-54.163 5.901-76.68-9.47-5.74-3.91-11.04-10.49-9.17-17.18.648-2.318 1.85-3.62 1.85-3.72 33.44-12.06 73.8-20.21 121.75-20.21v23.91c0 13.24 15.1 20.79 25.69 12.85l44.59-33.44c19.566 23.81 32.646 51.935 38.34 81.34z" fill="#e8f8fc"/></g><g><path d="m423.852 245.81c-3.1 98.9-84.25 178.13-183.91 178.13-72.692 0-135.214-42.104-165.08-102.65 8.27-6.49 43.629-37.037 93.075-28.085 19.519 3.534 53.211 31.622 72.001 37.952 67.68 22.8 124.354-.417 166.484-58.077 6.36-8.69 11.89-17.99 17.43-27.27z" fill="#e8f8fc"/></g><g><path d="m287.942 239.94c0 33.201-32.837 56.1-63.71 45.37-18.79-6.5-32.29-24.36-32.29-45.37 0-26.39 21.383-48 48-48 26.51 0 48 21.49 48 48z" fill="#80aaff"/></g><g><path d="m287.942 239.94c0 33.201-32.837 56.1-63.71 45.37 9.308-11.347 28.302-9.629 36.36-22.24 4.1-6.43 3.49-15.18-.41-21.74s-10.65-11.08-17.86-13.58c-3.33-1.16-6.81-1.94-10.01-3.45-7.755-3.689-16.552-13.835-19.51-23.95 7.72-5.31 17.06-8.41 27.14-8.41 26.51 0 48 21.49 48 48z" fill="#6994ff"/></g><g><path d="m414.347 99.15-76.73 57.55c-10.59 7.94-25.69.39-25.69-12.85v-23.91c-48.14 0-88.61 8.21-122.13 20.35-94.61 34.23-133.86 99.65-133.86 99.65 0-110.46 89.54-200 200-200h55.99v-23.85c0-13.23 15.1-20.79 25.69-12.85 65.873 49.405 49.456 37.091 76.73 57.55 12.79 9.59 12.79 28.77 0 38.36z" fill="#ff6d7a"/></g><g><path d="m423.94 239.94c0 110.439-89.525 200-200 200h-55.99v23.85c0 13.23-15.1 20.79-25.69 12.85-65.873-49.405-49.456-37.091-76.73-57.55-12.79-9.59-12.79-28.77 0-38.36l76.73-57.55c10.59-7.94 25.69-.39 25.69 12.85v23.91c48.14 0 88.61-8.21 122.13-20.35 94.61-34.23 133.86-99.65 133.86-99.65z" fill="#ff6d7a"/></g><g><path d="m409.81 313.93c-29.42 73.83-101.55 126.01-185.87 126.01h-55.94c-1.413-15.526 17.349-34.106 31.94-39.94 40-16 61.69-.02 88-8 28.65-8.69 61.07-27.32 82.5-48.23 11.665-11.39 23.836-24.163 39.37-29.84z" fill="#fe4f60"/></g><g><path d="m101.419 190.479c7.97-21.176 16.543-37.139 34.029-54.069 4.322-4.184 11.122-10.595 16.953-9.117 10.053 2.549 16.923 30.069 1.005 47.738-6.813 7.563-16.42 12.052-23.735 19.131-13.598 13.159-17.554 33.822-15.16 52.593 2.306 18.077-9.21 27.856-16 6.903-5.828-17.988-3.508-46.132 2.908-63.179z" fill="#fff"/></g><g><path d="m108.331 406.744c7.521 9.926 19.163 11.516 24.5 8.075 2.211-1.425 3.761-4.049 3.399-6.655-.639-4.596-6.131-6.553-9.094-10.125-3.092-3.728-3.496-9.439-7.346-12.377-2.153-1.643-5.092-2.07-7.73-1.455-11.153 2.598-9.203 15.312-3.729 22.537z" fill="#fff"/></g></g>
</symbol>
</defs>
</svg>
