<svg aria-hidden="true" style="position: absolute; width: 0; height: 0; overflow: hidden;" version="1.1" xmlns="http://www.w3.org/2000/svg" xmlns:xlink="http://www.w3.org/1999/xlink">
<defs>
<symbol id="icon-coffee-beans" viewBox="0 0 512 512">
<path d="m171.961 488.7a103.659 103.659 0 0 0 16.835-1.374c1.786-.289 3.622-.641 5.442-1.045a103.262 103.262 0 0 0 29.062-11.235c27.053-15.451 48.362-43.658 60-79.425a203.035 203.035 0 0 0 8.271-37.188c3.857.377 7.749.587 11.679.587 23.832 0 48.867-6.891 73.462-20.345 31.792-17.391 59.943-44.268 81.409-77.725 48.517-75.59 49.844-165.336 3.163-213.389a102.388 102.388 0 0 0 -27.647-20.271c-30.955-15.531-69.063-15.041-107.3 1.377-37.676 16.175-72.165 46.5-97.116 85.382a248.086 248.086 0 0 0 -19.182 36.1c-21.863-16.077-46.4-25.332-71.548-25.649a103.012 103.012 0 0 0 -23.426 2.4 99.866 99.866 0 0 0 -10.449 2.9c-32.844 10.973-59.388 38.318-74.741 77-15.13 38.1-17.984 83.936-8.039 129.051 19.678 89.315 83.6 152.849 150.125 152.849zm283.166-423.988c16.139 19.931 24.679 47.725 24.189 79.247-.556 35.916-12.866 74.4-34.66 108.351-20.024 31.209-46.174 56.22-75.622 72.329-25.084 13.721-51.387 19.966-75 17.955a239.052 239.052 0 0 0 87.91-147.286 223.685 223.685 0 0 1 64.1-121.724zm-36.019-8.412 12.308-12.017c1 .589 2.006 1.194 3 1.827a86.547 86.547 0 0 1 9.568 7.122l-9.118 8.9a239.671 239.671 0 0 0 -68.688 130.438 223.059 223.059 0 0 1 -72.97 129.923q-.324-9.708-1.457-19.543a239.189 239.189 0 0 0 63.261-124.921 222.3 222.3 0 0 1 64.096-121.729zm-176.424 66.39c44.258-68.972 118.056-104.59 173.164-85.564l-7.917 7.73a238.192 238.192 0 0 0 -68.683 130.435 223.076 223.076 0 0 1 -50.677 107.374c-.353-1.778-.718-3.557-1.11-5.336-10.605-48.132-34.258-89.2-64.513-116.609a231.16 231.16 0 0 1 19.736-38.03zm-96.5 30.979.126-12.7c25.508 2.634 51.226 16.2 73.215 38.786 25.055 25.741 43.634 61.617 52.316 101.018 8.334 37.836 7 76.866-3.749 109.9-8.229 25.281-21.66 46.215-38.582 60.535a239.064 239.064 0 0 0 -42.32-166.226 222.415 222.415 0 0 1 -41.021-129.062c0-.746 0-1.483.01-2.251zm-31.25 6.887.163-17.2c1.129-.3 2.263-.579 3.405-.83a86.949 86.949 0 0 1 11.809-1.755l-.126 12.722c-.011.814-.011 1.616-.011 2.43a238.328 238.328 0 0 0 43.956 138.3 223.134 223.134 0 0 1 39.247 157.239l-1.463 11.561a87.312 87.312 0 0 1 -15.017 6.057l1.1-8.719a240.977 240.977 0 0 0 1.9-30.155 238.346 238.346 0 0 0 -43.957-138.334 222.252 222.252 0 0 1 -41.011-131.316zm-15.9-11.219-.105 11.063a238.158 238.158 0 0 0 43.947 140.71 222.434 222.434 0 0 1 41.024 129.09 224.921 224.921 0 0 1 -1.776 28.146l-1.764 13.947c-28.477 2.7-58.094-8.694-84.035-32.5-28.455-26.115-49.359-64.251-58.862-107.384-17.643-80.027 9.193-157.444 61.571-183.072z"/><path d="m290.149 115.721a7.973 7.973 0 0 0 5.447-2.142c3.356-3.122 6.884-6.14 10.486-8.97a8 8 0 1 0 -9.887-12.58c-3.948 3.1-7.816 6.411-11.5 9.834a8 8 0 0 0 5.45 13.858z"/><path d="m249.27 164.845a7.994 7.994 0 0 0 10.724-3.6 166.483 166.483 0 0 1 18.325-28.927 8 8 0 1 0 -12.56-9.91 182.321 182.321 0 0 0 -20.091 31.714 8 8 0 0 0 3.602 10.723z"/><path d="m94.5 413.242a8 8 0 0 0 12.162-10.4c-2.979-3.485-5.849-7.136-8.525-10.852a8 8 0 0 0 -12.983 9.352c2.939 4.076 6.083 8.079 9.346 11.9z"/><path d="m114.237 433.024a182.34 182.34 0 0 0 30.847 21.4 8 8 0 1 0 7.715-14.017 166.344 166.344 0 0 1 -28.136-19.517 8 8 0 0 0 -10.426 12.136z"/>
</symbol>
<symbol id="icon-milk-box" viewBox="0 0 60 60">
<path id="Shape" d="m11 2v4.611l-10.737 11.713c-.02907904.0405187-.05482983.0833252-.077.128-.04445076.0579732-.08234817.1206884-.113.187-.02364562.0712481-.0384236.145138-.044.22-.01368349.0460836-.02338577.0932568-.029.141v40c0 .5522847.44771525 1 1 1h31.95c.5522847 0 1-.4477153 1-1s-.4477153-1-1-1h-8.95v-38h15v11.04c0 .5522847.4477153 1 1 1s1-.4477153 1-1v-12.04c-.0056142-.0477432-.0153165-.0949164-.029-.141-.0055764-.074862-.0203544-.1487519-.044-.22-.0306518-.0663116-.0685492-.1290268-.113-.187-.0221702-.0446748-.047921-.0874813-.077-.128l-10.737-11.713v-4.611c0-1.1045695-.8954305-2-2-2h-15c-1.1045695 0-2 .8954305-2 2zm-7.727 16 8.727-9.52 8.727 9.52zm18.727 40h-20v-38h20zm15.727-40h-14.287l-9.167-10h14.287zm-24.727-16h15v4h-15z"/><path id="Shape" d="m18 37.261v-2.89c2.9203909-1.9155726 3.8869357-5.7487224 2.224-8.82-.1442415-.2866509-.4172849-.4866669-.7340888-.5377516-.3168039-.0510846-.6388785.0529686-.8659112.2797516l-2.958 2.958c-2.1568551-1.6700097-5.1701449-1.6700097-7.327 0l-2.962-2.958c-.22703271-.226783-.54910727-.3308362-.86591119-.2797516-.31680393.0510847-.58984732.2511007-.73408881.5377516-1.66312657 3.0710293-.6970328 6.9041139 2.223 8.82v2.89c-1.7871324 1.4774323-2.45570765 3.9169937-1.67149664 6.0991168.78421102 2.1821232 2.85273727 3.6380255 5.17149664 3.6398832h5c2.3187594-.0018577 4.3872856-1.45776 5.1714966-3.6398832.7842111-2.1821231.1156358-4.6216845-1.6714966-6.0991168zm.9-9.412c.3484887 1.4257287-.0252916 2.9316895-1 4.029-.1471577-.7683978-.4441367-1.5003119-.874-2.154zm-13.8-.006 1.879 1.879c-.42986752.6562806-.72586606 1.3910094-.871 2.162-.98900563-1.0945431-1.36707292-2.6101879-1.008-4.041zm2.9 5.157c.00313734-1.608973.96860726-3.0599455 2.4515089-3.6842907 1.4829016-.6243452 3.195454-.3008989 4.3484911.8212907l.039.043c.015.018.03.034.046.051.7159367.7439685 1.1156022 1.736501 1.115 2.769l.0000007 3.213c-.4876836-.1403114-.9925355-.2120003-1.5000007-.213h-5c-.50746516.0009997-1.0123171.0726886-1.5.213zm6.5 12h-5c-1.93299662 0-3.5-1.5670034-3.5-3.5s1.56700338-3.5 3.5-3.5h5c1.9329966 0 3.5 1.5670034 3.5 3.5s-1.5670034 3.5-3.5 3.5z"/><circle id="Oval" cx="10" cy="33" r="1"/><circle id="Oval" cx="14" cy="33" r="1"/><path id="Shape" d="m10 40c-.55228475 0-1 .4477153-1 1v1c0 .5522847.44771525 1 1 1 .5522847 0 1-.4477153 1-1v-1c0-.5522847-.4477153-1-1-1z"/><path id="Shape" d="m14 40c-.5522847 0-1 .4477153-1 1v1c0 .5522847.4477153 1 1 1s1-.4477153 1-1v-1c0-.5522847-.4477153-1-1-1z"/><path id="Shape" d="m46 32c.5522847 0 1-.4477153 1-1 0-.459.2-.657.676-1.1.8309154-.5926703 1.3241726-1.5503734 1.3241726-2.571s-.4932572-1.9783297-1.3241726-2.571c-.481-.441-.676-.638-.676-1.1s.2-.654.675-1.094c.8152257-.6030797 1.3046459-1.5501539 1.325-2.564 0-.5522847-.4477153-1-1-1s-1 .4477153-1 1c0 .458-.2.654-.675 1.094-.8309032.5922319-1.3242151 1.5496379-1.3242151 2.57s.4933119 1.9777681 1.3242151 2.57c.481.441.676.639.676 1.1s-.2.656-.676 1.1c-.8155374.603709-1.304958 1.5515227-1.325 2.566 0 .5522847.4477153 1 1 1z"/><path id="Shape" d="m53.675 22.569c.816602-.6041449 1.3061862-1.5533839 1.325-2.569 0-.5522847-.4477153-1-1-1s-1 .4477153-1 1c0 .458-.2.654-.675 1.094-.8309032.5922319-1.3242151 1.5496379-1.3242151 2.57s.4933119 1.9777681 1.3242151 2.57c.481.441.676.639.676 1.1s-.2.656-.676 1.1c-.8155374.603709-1.304958 1.5515227-1.325 2.566 0 .5522847.4477153 1 1 1s1-.4477153 1-1c0-.459.2-.657.676-1.1.8309154-.5926703 1.3241726-1.5503734 1.3241726-2.571s-.4932572-1.9783297-1.3241726-2.571c-.481-.441-.676-.638-.676-1.1s.2-.649.675-1.089z"/><path id="Shape" d="m8 54h-2v-2c0-.5522847-.44771525-1-1-1s-1 .4477153-1 1v3c0 .5522847.44771525 1 1 1h3c.55228475 0 1-.4477153 1-1s-.44771525-1-1-1z"/><path id="Shape" d="m49 56h2.649c.2802439.0009671.5480338-.115705.7381504-.3216012.1901165-.2058963.2851117-.4821203.2618496-.7613988l-.253-3.033c-.0262881-.3586714-.2431472-.6756034-.56794-.8300246s-.7074906-.1225457-1.0022613.0834799c-.2947706.2060255-.4562097.5544665-.4227987.9125447l.16 1.95h-1.563c-.5522847 0-1 .4477153-1 1s.4477153 1 1 1z"/><path id="Shape" d="m34.68 51h.983l-.389 4.668c-.092839 1.1146822.2852902 2.2173157 1.0426637 3.0404322.7573736.8231165 1.8247946 1.2915124 2.9433363 1.2915678h13.479c1.1185417-.0000554 2.1859627-.4684513 2.9433363-1.2915678.7573735-.8231165 1.1355027-1.92575 1.0426637-3.0404322l-.464-5.576 3.679-13.607c.1493326-.5974237.0151245-1.2303318-.3638213-1.715734-.3789459-.4854023-.9603741-.7691728-1.5761787-.769266h-17.24c-1.8162716.0142462-3.3978493 1.2434516-3.86 3h-1.72c-2.0757469.0113731-3.8024029 1.5994462-3.987 3.667l-.5 6c-.090668 1.1144374.2883105 2.2160878 1.0454065 3.0388861.7570959.8227983 1.8234761 1.2919377 2.9415935 1.2941139zm6.08-15h17.24l-2.227 8.235-.356-4.27c-.0509487-.5460361-.5321638-.9491663-1.0786793-.9036462-.5465154.0455201-.9544077.5227054-.9143207 1.0696462l1.308 15.7c.0473064.5578363-.1413592 1.1099635-.5201462 1.5222008-.378787.4122374-.9130152.646842-1.4728538.6467992h-13.479c-.5592708-.0000277-1.0929813-.2342256-1.4716681-.6457839-.3786868-.4115582-.5677514-.962875-.5213319-1.5202161l1.5-18c.091812-1.033896.9550513-1.8282667 1.993-1.834zm-7.573 4.833c.0918455-1.0337233.9552177-1.8277831 1.993-1.833h1.483l-.833 10h-1.15c-.5588695-.0018187-1.0916446-.2366981-1.469967-.6480502-.3783225-.4113521-.5678906-.9618805-.523033-1.5189498z"/>
</symbol>
<symbol id="icon-espresso-machine" viewBox="0 0 60 60">
<path id="Shape" d="m11 50h-5v-2c0-.5522847-.44771525-1-1-1s-1 .4477153-1 1v3c0 .5522847.44771525 1 1 1h6c.5522847 0 1-.4477153 1-1s-.4477153-1-1-1z"/><path id="Shape" d="m2 21v21c-1.1045695 0-2 .8954305-2 2v7c.00330612 2.7600532 2.23994685 4.9966939 5 5v1c0 1.6568542 1.34314575 3 3 3h6c1.6568542 0 3-1.3431458 3-3v-1h26v1c0 1.6568542 1.3431458 3 3 3h6c1.6568542 0 3-1.3431458 3-3v-1c2.7600532-.0033061 4.9966939-2.2399468 5-5v-7c0-1.1045695-.8954305-2-2-2v-21c1.1045695 0 2-.8954305 2-2v-7c-.0029983-2.37510083-1.6735832-4.42156735-4-4.9v-4.1c0-1.65685425-1.3431458-3-3-3h-1c-1.2667854.00525139-2.3937454.80564914-2.816 2h-38.368c-.4222546-1.19435086-1.54921457-1.99474861-2.816-2h-1c-1.65685425 0-3 1.34314575-3 3v4.1c-2.3264168.47843265-3.99700171 2.52489917-4 4.9v7c0 .530433.21071368 1.0391408.58578644 1.4142136.37507276.3750727.88378058.5857864 1.41421356.5857864zm13 36c0 .5522847-.4477153 1-1 1h-6c-.55228475 0-1-.4477153-1-1v-1h8zm38 0c0 .5522847-.4477153 1-1 1h-6c-.5522847 0-1-.4477153-1-1v-1h8zm5-6c0 1.6568542-1.3431458 3-3 3h-50c-1.65685425 0-3-1.3431458-3-3v-7h56zm-49-14v-4h14v4c-.0033061 2.7600532-2.2399468 4.9966939-5 5h-4c-2.7600532-.0033061-4.99669388-2.2399468-5-5zm18.23-3c.4481282.0087707.8385859.3076895.964.738.1885938.5581252.0942426 1.1730862-.253 1.649-.7884988.8181991-1.8532644 1.3136876-2.987 1.39.0299772-.257925.0453351-.5173397.046-.777v-3zm28.77 8h-33.11c.6307183-.6167599 1.1395933-1.3468259 1.5-2.152 2.339-.182 4.2-.986 5.155-2.263.7176931-.9689474.9329262-2.2210102.58-3.374-.3618686-1.3015471-1.5441-2.2044534-2.895-2.211h-2.508c-.3544126-.6167513-1.0106732-.997855-1.722-1h-14c-1.1045695 0-2 .8954305-2 2v4c-.00024724 1.8831202.76072721 3.6863772 2.11 5h-5.11v-21h4v2c0 1.6568542 1.34314575 3 3 3h10c1.6568542 0 3-1.3431458 3-3v-2h12v2c.0052514 1.2667854.8056491 2.3937454 2 2.816v3.184c.0074684.969781.4822018 1.8764286 1.275 2.435-.716136 2.0691224-.0027195 4.3634989 1.760457 5.6617005 1.7631764 1.2982015 4.1659096 1.2982015 5.929086 0 1.7631765-1.2982016 2.476593-3.5925781 1.760457-5.6617005.7927982-.5585714 1.2675316-1.465219 1.275-2.435v-3.184c1.1943509-.4222546 1.9947486-1.5492146 2-2.816v-2h4zm-46-21h12v2c0 .5522847-.4477153 1-1 1h-10c-.5522847 0-1-.4477153-1-1zm15-7c0-2.7614237 2.2385763-5 5-5s5 2.2385763 5 5-2.2385763 5-5 5c-2.7600532-.0033061-4.9966939-2.2399468-5-5zm22.711 15.681c-.9373878-1.0683343-2.289721-1.68086-3.711-1.68086s-2.7736122.6125257-3.711 1.68086c-.1813346-.1807076-.2850183-.4250281-.289-.681v-3h8v3c-.0039817.2559719-.1076654.5002924-.289.681zm-3.711.319c1.6568542 0 3 1.3431458 3 3s-1.3431458 3-3 3-3-1.3431458-3-3 1.3431458-3 3-3zm5-6h-10c-.5522847 0-1-.4477153-1-1v-2h12v2c0 .5522847-.4477153 1-1 1zm9-12v7h-23.11c1.349108-1.3137414 2.1100739-3.116915 2.1100739-5s-.7609659-3.6862586-2.1100739-5h20.11c1.6568542 0 3 1.3431458 3 3zm-6-10h1c.5522847 0 1 .44771525 1 1v4h-3v-4c0-.55228475.4477153-1 1-1zm-3 2v3h-38v-3zm-43-1c0-.55228475.44771525-1 1-1h1c.55228475 0 1 .44771525 1 1v4h-3zm-4 9c0-1.6568542 1.34314575-3 3-3h20.11c-1.349108 1.3137414-2.1100739 3.116915-2.1100739 5s.7609659 3.6862586 2.1100739 5h-23.11z"/><path id="Shape" d="m8 17c1.65685425 0 3-1.3431458 3-3s-1.34314575-3-3-3-3 1.3431458-3 3 1.34314575 3 3 3zm0-4c.55228475 0 1 .4477153 1 1s-.44771525 1-1 1-1-.4477153-1-1 .44771525-1 1-1z"/><path id="Shape" d="m17 17c1.6568542 0 3-1.3431458 3-3s-1.3431458-3-3-3-3 1.3431458-3 3 1.3431458 3 3 3zm0-4c.5522847 0 1 .4477153 1 1s-.4477153 1-1 1-1-.4477153-1-1 .4477153-1 1-1z"/><path id="Shape" d="m43 11c-1.6568542 0-3 1.3431458-3 3s1.3431458 3 3 3 3-1.3431458 3-3-1.3431458-3-3-3zm0 4c-.5522847 0-1-.4477153-1-1s.4477153-1 1-1 1 .4477153 1 1-.4477153 1-1 1z"/><path id="Shape" d="m52 11c-1.6568542 0-3 1.3431458-3 3s1.3431458 3 3 3 3-1.3431458 3-3-1.3431458-3-3-3zm0 4c-.5522847 0-1-.4477153-1-1s.4477153-1 1-1 1 .4477153 1 1-.4477153 1-1 1z"/><path id="Shape" d="m30 11c-.5522847 0-1 .4477153-1 1v2c0 .5522847.4477153 1 1 1s1-.4477153 1-1v-2c0-.5522847-.4477153-1-1-1z"/>
</symbol>
<symbol id="icon-facebook1" viewBox="0 0 32 32">
<path fill="#fff" d="M29 0h-26c-1.65 0-3 1.35-3 3v26c0 1.65 1.35 3 3 3h13v-14h-4v-4h4v-2c0-3.306 2.694-6 6-6h4v4h-4c-1.1 0-2 0.9-2 2v2h6l-1 4h-5v14h9c1.65 0 3-1.35 3-3v-26c0-1.65-1.35-3-3-3z"></path>
</symbol>
</defs>
</svg>
